# xmcd CD database file
# Copyright (C) 1993-1998 Ti Kan
# 
# Track frame offsets:
#     200
#     24517
#     45127
#     63392
#     80307
#     100352
#     117545
#     141382
#     159055
#     179505
# 
# Disc length: 2615 seconds
# 
# Revision: 1
# Processed by: cddbd v1.4b41PL1 Copyright (c) Steve Scherf et al.
# Submitted via: DiscPlay 4.0.4
# 
DISCID=7b0a350a
DTITLE=Earl Thomas - Blue...not Blues
DYEAR=1900
DGENRE=
TTITLE0=I Sing The Blues
TTITLE1=What I've Got To Do
TTITLE2=I Ain't Ready (To Give Up On Your Love)
TTITLE3=Your Love
TTITLE4=I'll Be Here
TTITLE5=Nothing Left To Lose
TTITLE6=The Way She Shakes That Thang
TTITLE7=Special Lovin
TTITLE8=Baby Please Don't Cry
TTITLE9=I Won't Be Around
EXTD=
EXTT0=
EXTT1=
EXTT2=
EXTT3=
EXTT4=
EXTT5=
EXTT6=
EXTT7=
EXTT8=
EXTT9=
PLAYORDER=
